<?xml version="1.0" encoding="UTF-8"?>
<!DOCTYPE svg PUBLIC "-//W3C//DTD SVG 1.1//EN" "http://www.w3.org/Graphics/SVG/1.1/DTD/svg11.dtd">
<svg xmlns="http://www.w3.org/2000/svg" version="1.1" width="120px" height="120px" style="shape-rendering:geometricPrecision; text-rendering:geometricPrecision; image-rendering:optimizeQuality; fill-rule:evenodd; clip-rule:evenodd" xmlns:xlink="http://www.w3.org/1999/xlink">
<g><path style="opacity:0.765" fill="#000000" d="M 24.5,29.5 C 47.1691,29.3334 69.8358,29.5 92.5,30C 110.603,37.3729 117.103,50.5396 112,69.5C 109.5,73.3333 107,77.1667 104.5,81C 98.9163,84.3075 92.9163,86.6408 86.5,88C 68.1667,88.6667 49.8333,88.6667 31.5,88C 19.593,86.798 10.7597,80.9647 5,70.5C 2.15519,59.9397 3.32185,49.9397 8.5,40.5C 11.6212,38.2181 14.6212,35.7181 17.5,33C 20.1868,32.2715 22.5201,31.1049 24.5,29.5 Z M 82.5,46.5 C 87.2478,47.0042 87.5811,48.3375 83.5,50.5C 81.8241,49.2724 81.4908,47.9391 82.5,46.5 Z M 30.5,47.5 C 32.0294,50.2469 33.3628,53.2469 34.5,56.5C 37.4212,57.4066 40.4212,57.7399 43.5,57.5C 43.5,58.5 43.5,59.5 43.5,60.5C 35.3171,58.1957 31.4838,61.1957 32,69.5C 30.6081,66.7216 30.1081,63.7216 30.5,60.5C 18.9864,60.8394 18.8197,59.506 30,56.5C 30.498,53.5184 30.6646,50.5184 30.5,47.5 Z M 71.5,56.5 C 72.8333,56.5 74.1667,56.5 75.5,56.5C 75.5,57.5 75.5,58.5 75.5,59.5C 74.1667,59.5 72.8333,59.5 71.5,59.5C 71.5,58.5 71.5,57.5 71.5,56.5 Z M 92.5,56.5 C 93.5,56.5 94.5,56.5 95.5,56.5C 95.5,57.5 95.5,58.5 95.5,59.5C 94.5,59.5 93.5,59.5 92.5,59.5C 92.5,58.5 92.5,57.5 92.5,56.5 Z M 82.5,66.5 C 87.0214,66.3262 87.3548,66.9929 83.5,68.5C 82.7025,68.0431 82.3691,67.3764 82.5,66.5 Z"/></g>
</svg>
