<?xml version="1.0" standalone="no"?>
<!DOCTYPE svg PUBLIC "-//W3C//DTD SVG 20010904//EN"
 "http://www.w3.org/TR/2001/REC-SVG-20010904/DTD/svg10.dtd">
<svg version="1.0" xmlns="http://www.w3.org/2000/svg"
 width="100.000000pt" height="100.000000pt" viewBox="0 0 100.000000 100.000000"
 preserveAspectRatio="xMidYMid meet">

<g transform="translate(0.000000,100.000000) scale(0.100000,-0.100000)"
fill="#000000" stroke="none">
<path d="M746 921 c-26 -27 -44 -37 -59 -34 -18 3 -62 -37 -220 -195 l-199
-199 62 -59 c34 -32 65 -60 69 -62 4 -1 56 47 115 108 108 109 108 110 92 134
-24 38 -21 92 8 121 36 36 69 41 116 16 l39 -20 15 21 c11 15 12 25 5 34 -8
10 0 25 31 58 43 47 44 52 7 94 -28 30 -37 28 -81 -17z"/>
<path d="M637 712 c-23 -25 -21 -58 3 -82 39 -39 100 -14 100 42 0 51 -69 78
-103 40z"/>
<path d="M768 636 c-14 -36 -14 -43 4 -90 29 -75 22 -163 -20 -249 -56 -114
-152 -177 -282 -185 -84 -4 -160 17 -215 62 -28 23 -29 25 -10 32 23 9 36 25
29 36 -3 4 -39 8 -80 8 -65 0 -74 -2 -74 -19 0 -27 102 -118 167 -149 57 -27
62 -27 291 -30 l232 -3 0 24 c0 30 -16 37 -79 37 l-47 0 49 51 c27 28 63 81
80 117 29 61 32 76 32 167 0 91 -3 106 -31 165 l-30 64 -16 -38z"/>
<path d="M686 572 c-3 -5 2 -31 10 -58 24 -77 8 -156 -49 -237 -10 -14 -9 -19
3 -27 19 -12 40 7 71 67 31 62 35 193 6 236 -18 27 -32 34 -41 19z"/>
<path d="M240 415 l-22 -23 35 -38 34 -38 28 28 27 27 -23 26 c-40 42 -54 45
-79 18z"/>
</g>
</svg>
