<?xml version="1.0" encoding="UTF-8"?>
<!DOCTYPE svg PUBLIC "-//W3C//DTD SVG 1.1//EN" "http://www.w3.org/Graphics/SVG/1.1/DTD/svg11.dtd">
<svg xmlns="http://www.w3.org/2000/svg" version="1.1" width="120px" height="120px" style="shape-rendering:geometricPrecision; text-rendering:geometricPrecision; image-rendering:optimizeQuality; fill-rule:evenodd; clip-rule:evenodd" xmlns:xlink="http://www.w3.org/1999/xlink">
<g><path style="opacity:0.89" fill="#010101" d="M 50.5,16.5 C 61.4044,15.4528 71.7378,17.2861 81.5,22C 93.728,32.0347 96.8947,44.5347 91,59.5C 87.0676,65.7661 83.5676,72.2661 80.5,79C 81.0363,82.4798 82.0363,85.8132 83.5,89C 86.4912,93.1622 89.8245,96.9955 93.5,100.5C 77.5139,101.499 61.5139,101.833 45.5,101.5C 46.6871,99.0947 48.1871,96.7613 50,94.5C 50.4935,92.8659 50.6602,91.1992 50.5,89.5C 46.8023,89.1944 43.3023,89.861 40,91.5C 37.556,90.3528 35.2227,89.0194 33,87.5C 32.2975,81.7691 31.2975,76.1024 30,70.5C 26.9245,70.2086 25.4245,68.5419 25.5,65.5C 26.7037,60.7615 28.7037,56.4282 31.5,52.5C 29.5585,41.0982 32.2252,30.9315 39.5,22C 43.4769,20.421 47.1436,18.5877 50.5,16.5 Z M 77.5,63.5 C 77.8333,63.5 78.1667,63.5 78.5,63.5C 78.719,64.675 78.3857,65.675 77.5,66.5C 76.913,65.7666 76.913,64.7666 77.5,63.5 Z"/></g>
<g><path style="opacity:1" fill="#0f0f0f" d="M 74.5,36.5 C 75.1426,40.4331 74.1426,43.7664 71.5,46.5C 63.0253,48.8716 59.192,45.5383 60,36.5C 62.9132,31.3106 67.0799,30.1439 72.5,33C 73.305,34.1127 73.9717,35.2794 74.5,36.5 Z"/></g>
<g><path style="opacity:1" fill="#dadada" d="M 79.5,39.5 C 80.2341,40.7079 80.5674,42.0413 80.5,43.5C 79.1779,43.67 78.0113,43.3366 77,42.5C 76.9633,40.0261 76.13,38.0261 74.5,36.5C 73.9717,35.2794 73.305,34.1127 72.5,33C 67.0799,30.1439 62.9132,31.3106 60,36.5C 59.192,45.5383 63.0253,48.8716 71.5,46.5C 72.5832,46.4606 73.5832,46.1272 74.5,45.5C 75.1719,46.9492 75.8386,48.2825 76.5,49.5C 75.8549,50.8118 74.8549,51.8118 73.5,52.5C 71.4775,50.8267 69.1441,50.1601 66.5,50.5C 66.5,51.5 66.5,52.5 66.5,53.5C 65.0646,54.0965 63.398,54.0965 61.5,53.5C 61.8981,49.2411 59.8981,47.4078 55.5,48C 54.9781,47.4387 54.6448,46.772 54.5,46C 55.1157,41.456 55.9491,36.956 57,32.5C 58.6753,31.4045 59.842,29.9045 60.5,28C 64.5354,27.2021 68.5354,26.3688 72.5,25.5C 72.238,26.9778 72.5713,28.3112 73.5,29.5C 75.5352,30.0412 77.5352,30.7078 79.5,31.5C 78.9619,34.1017 78.9619,36.7683 79.5,39.5 Z"/></g>
<g><path style="opacity:1" fill="#b4b4b4" d="M 74.5,36.5 C 76.13,38.0261 76.9633,40.0261 77,42.5C 78.0113,43.3366 79.1779,43.67 80.5,43.5C 80.5674,42.0413 80.2341,40.7079 79.5,39.5C 82.3892,39.999 83.0558,41.499 81.5,44C 77.9055,44.1225 76.2388,45.9558 76.5,49.5C 75.8386,48.2825 75.1719,46.9492 74.5,45.5C 73.5832,46.1272 72.5832,46.4606 71.5,46.5C 74.1426,43.7664 75.1426,40.4331 74.5,36.5 Z"/></g>
<g><path style="opacity:1" fill="#3d3d3d" d="M 76.5,49.5 C 76.6498,51.0595 76.9831,52.7261 77.5,54.5C 74.9339,54.6556 72.4339,54.3223 70,53.5C 68.9889,54.0556 68.1556,54.7222 67.5,55.5C 67.6716,54.5084 67.3382,53.8417 66.5,53.5C 66.5,52.5 66.5,51.5 66.5,50.5C 69.1441,50.1601 71.4775,50.8267 73.5,52.5C 74.8549,51.8118 75.8549,50.8118 76.5,49.5 Z"/></g>
<g><path style="opacity:1" fill="#deddde" d="M 77.5,54.5 C 77.5861,56.677 78.2528,58.677 79.5,60.5C 78.8728,61.4168 78.5394,62.4168 78.5,63.5C 78.1667,63.5 77.8333,63.5 77.5,63.5C 76.4469,57.9225 73.2802,55.9225 68,57.5C 66.3364,60.2893 66.1698,63.1227 67.5,66C 66.5632,66.6917 65.8966,66.525 65.5,65.5C 64.9094,64.8485 64.2427,64.1818 63.5,63.5C 64.3742,61.2534 64.7076,58.9201 64.5,56.5C 65.791,56.7373 66.791,56.404 67.5,55.5C 68.1556,54.7222 68.9889,54.0556 70,53.5C 72.4339,54.3223 74.9339,54.6556 77.5,54.5 Z"/></g>
<g><path style="opacity:1" fill="#888888" d="M 67.5,55.5 C 66.791,56.404 65.791,56.7373 64.5,56.5C 64.7076,58.9201 64.3742,61.2534 63.5,63.5C 64.2427,64.1818 64.9094,64.8485 65.5,65.5C 64.5,65.5 63.5,65.5 62.5,65.5C 63.0508,62.1933 63.3841,58.8599 63.5,55.5C 64.8333,55.5 66.1667,55.5 67.5,55.5 Z"/></g>
</svg>
